# xmcd
#
# Track frame offsets: 
#        150
#        19180
#        40950
#        57878
#        71030
#        81770
#        99400
#        115338
#        132263
#        158953
#        176455
#
# Disc length: 2534 seconds
#
# Revision: 1
# Processed by: cddbd v1.5.2PL0 Copyright (c) Steve Scherf et al.
# Submitted via: ExactAudioCopy v1.0b3
#
DISCID=8f09e40b
DTITLE=Bukka White - Shake 'em On Down
DYEAR=1993
DGENRE=Blues
TTITLE0=Aberdeen Mississippi Blues
TTITLE1=Baby Please Don't Go
TTITLE2=New Orleans Streamline
TTITLE3=Parchman Farm Blues
TTITLE4=Poor Boy Long Ways From Home
TTITLE5=Rememberance Of Charlie Patton
TTITLE6=Shake 'em On Down
TTITLE7=I Am The Heavenly Way
TTITLE8=The Atlanta Special
TTITLE9=Drunk Man Blues
TTITLE10=Army Blues
EXTD=
EXTT0=
EXTT1=
EXTT2=
EXTT3=
EXTT4=
EXTT5=
EXTT6=
EXTT7=
EXTT8=
EXTT9=
EXTT10=
PLAYORDER=
